<svg width="250" height="250" fill="none" xmlns="http://www.w3.org/2000/svg"><path fill-rule="evenodd" clip-rule="evenodd" d="M0 125c0 69.036 55.964 125 125 125s125-55.964 125-125S194.036 0 125 0 0 55.964 0 125zm227.273 0c0 56.484-45.789 102.273-102.273 102.273-56.484 0-102.273-45.789-102.273-102.273 0-56.484 45.79-102.273 102.273-102.273 56.484 0 102.273 45.79 102.273 102.273z" fill="#11263A"/><path fill-rule="evenodd" clip-rule="evenodd" d="M109.091 143.021l60.147-60.146 16.07 16.07-76.217 76.217-42.126-42.126 16.07-16.07 26.056 26.055z" fill="#11263A"/></svg>