<svg width="97" height="28" fill="none" xmlns="http://www.w3.org/2000/svg"><path fill-rule="evenodd" clip-rule="evenodd" d="M7.243 21c.907 1.404 1.737 2.238 1.871 2.446-.3-.026-1.198-.463-1.52-.617-.485-.233-.872-.603-1.41-.733.03-.357.22-.46.426-.655.203-.194.393-.31.633-.441zm37.107 1.602h-1.953v-3.204c1.775 0 3.337-.36 3.337 1.686 0 .83-.583 1.518-1.384 1.518zm-3.662 5.23h1.71v-3.627c1.334 0 3.199.198 4.21-.697 1.648-1.458 1.194-5.713-1.932-5.713h-3.988v10.036zM72.994 28c1.751 0 2.861-.461 3.839-1.926.176-.265.479-.938.556-1.279h-1.872c-.231.453-.4.802-.8 1.112-1.51 1.171-4.001.179-4.001-2.63 0-1.336.067-3.05 1.434-3.743 1.583-.802 3.112.14 3.448 1.635h1.872c-.4-1.782-1.823-3.543-3.906-3.543-1.67 0-2.54.335-3.6 1.583-1.371 1.618-1.46 5.357-.038 7.163.743.944 1.757 1.628 3.068 1.628zM59.08 22.77c0 1.193.335 2.665 1.038 3.563C61.207 27.727 62.126 28 63.799 28c1.973 0 3.717-1.96 3.743-3.205-3.014 0-1.26.06-2.554 1.064-1.837 1.425-4.037-.175-4.037-2.413 0-1.314-.054-3.139 1.421-3.924 1.45-.772 3.115.107 3.461 1.647h1.872c-.4-1.777-1.821-3.543-3.906-3.543-1.564 0-2.723.347-3.605 1.578-.72 1.005-1.115 2.2-1.115 3.567zM53.627 4.976c.203.905.426 1.683.702 2.562l.763 2.582h-2.93l1.465-5.144zm-4.15 8.35h1.79c.041-.512.364-1.065.407-1.603h3.906c.006.076.299 1.602.65 1.602h1.547c-.01-.473-.578-2.007-.743-2.52l-1.973-6.22c-.118-.365-.348-.938-.376-1.296h-2.116l-3.093 10.036zm19.611 0h1.71V8.77l3.07 3.395c.288.295.896.763.998 1.16h2.197l-4.006-4.704c-.287-.298-.355-.31-.55-.694.25-.389.702-.764 1.038-1.116l3.193-3.523H74.54c-.096.376-.608.757-.874 1.033l-2.869 3.015V3.29h-1.709v10.036zm-9.602 0h1.709V8.94h4.313v4.385h1.709V3.29h-1.71v4.048h-4.312V3.29h-1.71v10.036zm-6.103 13.071c-3.174 0-3.314-5.589-1.22-6.83 1.067-.633 2.356-.36 3.141.706 1.164 1.582.955 6.124-1.921 6.124zm-4.395-3.88v.591c0 2.532 1.666 4.892 4.07 4.892 1.507 0 2.681-.27 3.65-1.614 1.45-2.007 1.384-5.219.001-7.147-.89-1.241-2.056-1.613-3.652-1.613-2.405 0-4.069 2.378-4.069 4.892zm-4.15-10.794h-2.523V8.94c1.075 0 2.995-.203 3.558.361.834.837.389 2.422-1.035 2.422zm-4.231 1.602h4.475c4.091 0 3.98-5.988.163-5.988h-2.93V4.976h4.72c.395 0 .244-.614.244-1.687h-6.672v10.036zm50.127 7.928c0-.64-.051-1.472.737-1.767.562-.21 3.074-.088 3.82-.088v3.204c-1.22 0-3.163.19-3.977-.348-.264-.175-.58-.593-.58-1v-.001zm-1.79-.422c0 1.043.14 1.507.648 2.196.303.412 1.009.925 1.712.925-.114.442-2.412 3.446-2.523 3.88h2.034c.32-.628 2.173-3.216 2.279-3.627h2.197v3.626H97V17.795h-4.801c-1.915 0-3.255 1.076-3.255 3.036zm-9.928 7c2.103 0 1.464.338 2.734-1.636l3.45-5.28v6.916h1.71V17.795c-2.115 0-1.498-.329-2.751 1.62-.394.611-.77 1.155-1.156 1.754l-2.278 3.457v-6.83h-1.71V27.83zM15.136 5.292l.03 5.672c-3.619 0-5.616-.947-6.377-1.012.306-1.362 2.737-3.33 4.207-3.989 1.149-.514 1.402-.4 2.14-.67zm0 7.42v1.543l-7.73-.002c.105-1.313.34-1.768.569-2.783 1.349.325 1.389.539 3.313.867.575.098 1.166.178 1.847.279.535.078 1.458.155 2 .096zm1.546 1.546V4.301c.22.061.502.369 1.002.648.849.475 2.976.875 4.009 1.075 4.179.806 6.265 1.752 8.465 5.142.41.63.83 1.545 1.058 2.362.27.973.195 2.133.195 3.34H17.903v7.253c.445-.108.937-.062 1.383-.17v-5.65h13.671c0-4.788.168-6.772-3.275-10.352-.973-1.011-1.52-1.303-2.61-1.934-1.037-.601-1.958-.98-3.182-1.256-.652-.147-1.163-.27-1.826-.385-2.65-.456-5.071-1.2-6.488-3.65-.173-.298-.203-.544-.44-.724v3.578c-3.026.097-6.665 1.19-9.252 2.689-2.462 1.427-4.81 3.66-5.607 6.587A8.57 8.57 0 000 14.442v1.255c.324 4.122 3.8 7.39 7.452 8.966 1.25.54 2.175.873 3.598 1.246 2.42.633 5.864.87 8.772.454 3.154-.452 5.624-1.32 7.983-2.775.289-.178.472-.31.742-.497 1.091-.75 1.087-.835 1.947-1.692.259-.258.409-.29.64-.603.519-.705 1.052-.92 1.09-1.399-3.58 0-7.16.003-10.74 0-.316 0-1.042-.116-1.184.124-.075.126-.075 1.23 0 1.356.15.254 2.198.123 2.567.123h5.452c-.284.44-1.669 1.288-2.224 1.575-2.796 1.45-5.882 2.22-9.331 2.22v-8.94h13.67v-1.602l-13.752.005zm-7.893 5.983c1.243-.682 4.76-1.18 6.347-1.18v5.65c-2-.172-3.832-1.495-5.188-2.888-.38-.39-.912-1.098-1.16-1.582zm-7.08-4.386h3.987c.217.966.295 2.527.814 3.543-.594.412-1.327.855-1.709 1.602-1.37-.95-2.85-3.186-3.092-5.145zm5.696 0h7.73v1.434c-1.736 0-3.852.395-5.469.826-.309.082-.51.144-.826.24-.317.096-.514.218-.784.284-.524-1.132-.562-2.577-.65-2.784zm-1.709-1.602H1.71c.075-.94.66-2.303 1.091-2.917.354-.502 1.382-1.91 1.92-2.059.125.487 1.276 1.197 1.709 1.434l-.44 1.652c-.142.631-.16 1.302-.293 1.89zm1.546-5.06c-.514-.282-.902-.52-1.22-1.012.59-.41 2.335-1.355 3.01-1.518-.158.246-.314.344-.507.57-.324.379-1.19 1.55-1.283 1.96z" fill="#000"/></svg>