<svg width="95" height="26" fill="none" xmlns="http://www.w3.org/2000/svg"><path fill-rule="evenodd" clip-rule="evenodd" d="M57.231 18.213H54.11v-4.31h3.82c1.552 0 2.995.677 2.767 2.47-.22 1.725-2.077 1.84-3.466 1.84zm-44.294-5.59c-.468-.314-1.051-.646-1.528-.96l-1.538-.972c-.54-.32-1.15-.742-1.691-1.065-.06-.036-.108-.08-.171-.096v3.754l.608.379c.103.07.195.128.302.192l1.237.778c.113.07.207.133.316.199l1.224.77c.307.19.975.634 1.241.776l.367-.272a97.921 97.921 0 012.2-1.626l2.576-1.91c.129-.097.239-.174.367-.27.13-.1.247-.182.378-.28l1.467-1.085c.124-.094.245-.18.366-.271l2.21-1.639c.13-.1.252-.184.378-.28.121-.091.242-.177.366-.27.126-.095.24-.176.367-.272l.745-.55-.157-.359c-.06-.12-.108-.227-.175-.34l-.378-.672c-.085-.143-.725-1.136-.85-1.229l-.963.705c-.111.082-.206.15-.32.235-.218.166-.42.306-.639.472-.114.085-.208.152-.32.235L18.05 8.828c-.423.318-.85.625-1.276.946l-.64.471c-.216.164-.418.312-.636.475l-1.596 1.18c-.111.079-.206.15-.32.236l-.645.486zM4.415 7.882c.076-.118.142-.237.222-.356.081-.122.157-.223.233-.347l.777-.944.447-.463c.097-.087.21-.17.293-.274L7 5.009a9.384 9.384 0 011.002-.663l.733-.379c.134-.064.248-.113.382-.172 1.083-.478 2.472-.763 3.682-.763.92 0 1.598.057 2.488.28 1.23.31 2.239.782 3.236 1.453.124-.034 2.21-1.63 2.546-1.857-.053-.08-.281-.237-.372-.306-.47-.354-1.16-.817-1.681-1.076-.333-.165-.562-.299-.942-.456a12.324 12.324 0 00-1.525-.552 12.109 12.109 0 00-1.703-.372C14.131.046 13.662 0 12.902 0c-1.253 0-2.756.227-3.88.606-.981.332-1.236.447-2.101.88l-.95.552c-.152.103-.291.193-.443.297l-1.256.998c-.175.165-.33.31-.498.478-.077.077-.168.156-.233.24-.082.107-.16.161-.238.26L3 4.665c-.2.25-.481.573-.64.839-.097.129-.171.243-.262.379-.092.137-.164.27-.255.408-.072.102-.137.237-.202.35a2.993 2.993 0 00-.101.187l-.295.57c-.036.074-.052.126-.089.2-.037.072-.055.134-.089.2-.14.264-.398 1.04-.506 1.368-.026.08-.036.154-.069.216-.039.182-.096.367-.14.544-.048.194-.086.385-.127.577-.002.075-.027.158-.038.226l-.038.23C.102 11.24 0 12.175 0 12.437v1.053c-.001.29.076 1.039.117 1.326.016.11.038.223.047.319L.383 16.2c.051.174.083.33.138.5l.157.5.24.648c.496 1.244 1.304 2.624 2.178 3.609.074.083.143.155.215.238.042.047.046.065.092.113.042.044.071.07.114.113l1.391 1.284.255.198c.393.295 1.167.813 1.627 1.047l.445.233c.062.03.104.04.158.07.235.124.615.275.874.38.157.063.288.108.453.163.704.236 1.27.393 2.011.517.182.03.363.074.557.074.053.028.152.031.215.037l.686.054c.275.041.7.012.998.012.9 0 1.786-.121 2.524-.29.868-.208 1.306-.336 2.099-.653l.28-.13 1.602-.826c.086-.052.167-.083.206-.151.071-.006.089-.038.181-.1l.544-.381c.677-.51.992-.793 1.611-1.414.111-.111.187-.209.298-.32l.277-.32c.1-.113.182-.223.277-.34.241-.296.676-.917.872-1.25.87-1.476 1.457-2.917 1.737-4.648.112-.688.18-1.442.18-2.255 0-.54-.073-1.427-.165-1.98-.013-.08-.04-.187-.041-.268-.093.025-1.333.968-1.405 1.023l-1.409 1.04c0 1.194-.058 1.815-.348 2.929-.089.338-.287.9-.426 1.222-.195.453-.44.944-.7 1.36-.03.047-.053.077-.082.124a9.763 9.763 0 01-.597.845c-.063.078-.128.146-.187.223-.037.048-.058.063-.097.11a8.61 8.61 0 01-.7.741l-.44.382c-.152.133-.296.24-.46.364a5.55 5.55 0 01-.238.173c-.08.055-.163.114-.242.16-.24.185-.759.452-1.04.593l-.379.18c-.262.145-1 .384-1.31.476a3.79 3.79 0 01-.495.121c-.057.028-.38.084-.458.098-.177.031-.317.05-.501.074a8.52 8.52 0 01-1.07.076c-.305 0-.564-.007-.846-.02-.115-.006-.274-.031-.391-.041-.145-.013-.263-.042-.414-.042l-.18-.042a9.598 9.598 0 01-1.308-.316c-.362-.12-.977-.349-1.322-.53-1.014-.546-1.129-.606-2-1.29-.046-.035-.05-.04-.09-.075-.04-.035-.051-.038-.091-.073-.033-.03-.05-.052-.082-.083-.042-.039-.05-.038-.092-.073l-.247-.246c-.187-.165-.23-.227-.411-.412-.061-.062-.09-.11-.154-.176l-.582-.736a3.429 3.429 0 01-.136-.193c-.135-.204-.4-.606-.502-.815l-.226-.434c-.09-.18-.36-.773-.397-.945-.074-.14-.209-.613-.258-.79-.041-.144-.067-.265-.104-.411a3.381 3.381 0 01-.09-.453c-.061-.22-.078-.517-.109-.75-.008-.065-.01-.18-.023-.264-.03-.21-.032-.909-.032-1.125.043-.513.072-1.078.185-1.522.002-.122.164-.778.205-.874a6.43 6.43 0 01.214-.668c.04-.105.076-.21.121-.31.05-.113.084-.216.137-.316.021-.045.03-.08.055-.132l.5-.94zm29.222 4.784c0 1.281.076 1.908.464 3.081.148.447.397.987.636 1.383.468.778.743 1.086 1.338 1.688.05.05.075.077.128.118l.414.348.281.212c.477.354 1.07.657 1.634.896.967.409 2.305.648 3.4.648l.992-.056c1.049-.138 1.92-.31 2.87-.79l.676-.372c.335-.203 1.232-.885 1.438-1.195l-2.176-1.609-.951.51c-.44.22-1.072.437-1.557.519-1.67.28-3.225.004-4.539-1.047l-.352-.306c-.066-.064-.085-.104-.143-.166a4.931 4.931 0 01-1.288-2.893c-.09-1.048-.004-1.777.375-2.737a5.126 5.126 0 01.716-1.2c.89-1.13 2.44-1.838 3.878-1.838.496 0 .758-.011 1.264.091a5.13 5.13 0 011.837.754c.051.034.096.071.143.103.124-.028 1.578-1.156 1.824-1.324.108-.074.2-.148.306-.228.057-.044.099-.069.156-.112.063-.048.09-.073.158-.11-.056-.084-.267-.254-.365-.334a7.21 7.21 0 00-.99-.677 8.44 8.44 0 00-.96-.459c-.977-.393-2.069-.592-3.373-.592-1.933 0-3.777.579-5.257 1.691-.384.29-.383.327-.673.583l-.37.371c-.54.586-1.032 1.396-1.337 2.143-.36.883-.598 1.915-.598 2.906zm33.41 8.168h11.787v-2.62h-8.399v-3.98h7.167v-2.64h-7.167V7.796h4.867c.045 0 .181-.117.223-.148l3.098-2.292c.063-.048.184-.105.211-.18H67.047v15.656zm21.274-7.054h-2.998V7.797h2.937c1.288 0 2.295.346 2.916 1.279.235.353.43 1 .43 1.506 0 .6-.011 1.101-.28 1.636-.178.356-.333.596-.66.863-.542.441-1.367.698-2.345.698zm-6.386 7.054h3.388v-4.435h3.224c1.065 0 2.245-.218 3.119-.58a6.79 6.79 0 00.976-.504c.765-.504 1.36-1.107 1.785-1.962.843-1.694.759-4.064-.274-5.617a5.02 5.02 0 00-1.508-1.476l-.47-.27a7.01 7.01 0 00-1.07-.432 9.281 9.281 0 00-2.62-.38h-6.55v15.656zm-31.213 0h6.9c.644 0 1.309-.044 1.927-.147.203-.034.39-.079.58-.12 1.328-.283 2.603-1.083 3.27-2.284.655-1.183.714-2.879.242-4.196a3.898 3.898 0 00-.592-1.036 3.79 3.79 0 00-.666-.65c-.59-.447-1.25-.71-2.034-.907-.676-.169-1.542-.23-2.378-.23H54.11V7.796h6.468c.115 0 .805-.557.912-.631l.887-.657c.076-.057 1.725-1.257 1.775-1.332h-13.43v15.656z" fill="#000"/></svg>