<svg width="73" height="45" fill="none" xmlns="http://www.w3.org/2000/svg"><path fill-rule="evenodd" clip-rule="evenodd" d="M66.819 44.995c.137-.191 4.338-13.772 4.635-14.707.306-.962 1.363-4.192 1.525-4.91l-66.819.005c-.176.268-.663 2.002-.808 2.468l-2.3 7.35c-.51 1.636-1.029 3.27-1.53 4.896C1.194 41.157.184 44.187 0 45l66.819-.005zm-8.295-26.972c-.317-1.011-.778-2.08-1.15-3.088-.38-1.029-.77-2.043-1.156-3.084-.09-.246-.27-.537-.193-.791.268-.886 1.997-4.874 2.017-5.31l-5.358.006-1.658 4.059-.998-.01-.022-4.055-5.503.018-.001 12.229c.308.077 4.801.027 5.526.028l-.002-4.064 1.323.017 1.657 4.047 5.518-.002zm-24.345-4.059l2.534-.002v4.05l5.526.007-.018-12.266c-1.496-.013-4.109-.048-5.507.007l-.003 4.054H34.18l-.008-4.054c-1.555-.054-3.877-.01-5.513-.01v12.275h5.521v-4.06zm31.353-3.217c2.5-.578 2.694 3.06.94 3.482-2.477.595-2.836-3.043-.94-3.482zm-1.149-2.214c.051-1.124.88-2.042 1.597-2.404 1.54-.777 3.364-.475 4.882-1.108 1.062-.443.905-.643.902-1.117-.007-1.264.062-2.66-.008-3.904-1.487.335-1.477.504-3.436.75-3.424.43-6.39 1.524-8.125 4.384-1.054 1.737-1.399 4.67-1.157 7 .238 2.287 1.075 4.088 2.997 5.296 2.898 1.82 10.166 1.477 10.888-3.784.557-4.066-1.959-6.961-5.728-6.479-1.804.23-2.295 1.058-2.812 1.366zm-43.017 3.853c-.399 2.418-3.003 1.845-3.441.92-.106-.223-.045-1.589-.045-1.935 0-.92-.071-.962.553-1.386 1.293-.879 3.32.055 2.933 2.402zm-2.736 5.409a4.2 4.2 0 00.753.33c.616.221 1.19.307 1.916.308 4.022.004 6.075-3.253 5.76-7.277-.337-4.307-3.52-6.509-7.127-5.648-1.123.268-2.258 1.073-2.669 1.699-.11-.116-.097-.146-.162-.36l-.345-1.095-4.375-.002.023 17.18 5.502-.013v-5.589l.724.467z" fill="#000"/></svg>