<svg width="88" height="27" fill="none" xmlns="http://www.w3.org/2000/svg"><path fill-rule="evenodd" clip-rule="evenodd" d="M17.952 17.89H8.998h.08l-.027-8.863h8.876l.025 8.864zm36.327-4.471c0 2.921 1.042 4.732 2.653 6.685.418.507 2.045 1.664 2.698 1.929 1.417.575 2.3.889 4.135.889 1.673 0 3.397-.587 4.461-1.202.728-.42 2.744-1.927 2.953-2.711-.148-.223-2.608-2.784-2.95-2.875-.314 1.18-2.531 2.475-4.304 2.475-1.285 0-2.627-.492-3.49-1.375-2.707-2.768-1.274-8.846 2.932-8.846h.877c1.406 0 3.108 1.08 3.667 1.916.221-.149 2.778-2.613 2.87-2.955-.882-1.319-3.205-2.619-4.863-3.034-5.947-1.49-11.64 2.713-11.64 9.104zm-18.416 9.103h4.544c.184 0 .24-.055.24-.24V8.628h7.015v13.656c0 .184.055.24.239.24h4.305c.183 0 .239-.056.239-.24V4.475H35.863v18.047zm45.201-3.913h-3.507v-3.513h3.746c.957 0 1.914.573 1.914 1.517 0 .572.041 1.207-.689 1.626-.391.224-.881.37-1.464.37zm-8.29 3.674c0 .184.055.24.239.24h7.493c2.317 0 3.743-.169 5.229-1.072.587-.357 1.205-.972 1.545-1.566.711-1.24.72-2.106.72-3.512 0-3.485-3.077-5.19-6.457-5.19h-3.986V8.627h8.69c.183 0 .238-.055.238-.24V4.476H72.774v17.808zM9.074 8.867L9.077.003 1.205 7.769C-.42 9.399.07 8.354.07 13.419v13.575l8.375.004c.675.007.485.026 1.092-.583.85-.852 8.001-8.134 8.416-8.365l-.026 8.864c.296-.079.417-.296.618-.499l7.255-7.267c1.626-1.629 1.136-.585 1.136-5.65V.003L18.642 0c-.894-.01-.694.017-1.174.5-.822.83-8.02 8.123-8.395 8.366z" fill="#000"/></svg>